<?xml version="1.0" encoding="UTF-8"?> <svg xmlns="http://www.w3.org/2000/svg" width="111" height="111" viewBox="0 0 111 111" fill="none"> <path d="M16.4014 70.2177C16.1819 70.2177 15.9898 70.1354 15.8252 69.9707C15.6606 69.8061 15.5782 69.614 15.5782 69.3945C15.5782 69.175 15.592 69.0241 15.6194 68.9418L25.8262 42.3136C26.0457 41.71 26.4847 41.4081 27.1432 41.4081H29.9419C30.6004 41.4081 31.0394 41.71 31.2589 42.3136L41.4245 68.9418L41.5068 69.3945C41.5068 69.614 41.4245 69.8061 41.2599 69.9707C41.0953 70.1354 40.9032 70.2177 40.6837 70.2177H38.5847C38.2829 70.2177 38.0497 70.1491 37.8851 70.0119C37.7204 69.8473 37.6107 69.6826 37.5558 69.518L35.2922 63.6738H21.7929L19.5293 69.518C19.4744 69.6826 19.3509 69.8473 19.1589 70.0119C18.9942 70.1491 18.7747 70.2177 18.5004 70.2177H16.4014ZM34.0987 60.1343L28.5425 45.5238L22.9864 60.1343H34.0987Z" fill="#151413"></path> <path d="M16.4014 70.2177C16.1819 70.2177 15.9898 70.1354 15.8252 69.9707C15.6606 69.8061 15.5782 69.614 15.5782 69.3945C15.5782 69.175 15.592 69.0241 15.6194 68.9418L25.8262 42.3136C26.0457 41.71 26.4847 41.4081 27.1432 41.4081H29.9419C30.6004 41.4081 31.0394 41.71 31.2589 42.3136L41.4245 68.9418L41.5068 69.3945C41.5068 69.614 41.4245 69.8061 41.2599 69.9707C41.0953 70.1354 40.9032 70.2177 40.6837 70.2177H38.5847C38.2829 70.2177 38.0497 70.1491 37.8851 70.0119C37.7204 69.8473 37.6107 69.6826 37.5558 69.518L35.2922 63.6738H21.7929L19.5293 69.518C19.4744 69.6826 19.3509 69.8473 19.1589 70.0119C18.9942 70.1491 18.7747 70.2177 18.5004 70.2177H16.4014ZM34.0987 60.1343L28.5425 45.5238L22.9864 60.1343H34.0987Z" fill="url(#paint0_linear)"></path> <path d="M46.8539 70.2177C46.5796 70.2177 46.3463 70.1354 46.1543 69.9707C45.9897 69.7787 45.9073 69.5455 45.9073 69.2711V42.3959C45.9073 42.0941 45.9897 41.8609 46.1543 41.6962C46.3463 41.5042 46.5796 41.4081 46.8539 41.4081H56.1965C60.3395 41.4081 63.3303 42.341 65.1686 44.2068C67.0069 46.0451 67.9672 48.83 68.0495 52.5615C68.077 53.3572 68.0907 54.4273 68.0907 55.7718C68.0907 57.1162 68.077 58.2 68.0495 59.0231C67.9672 61.6297 67.5282 63.7561 66.7325 65.4024C65.9643 67.0212 64.7433 68.2284 63.0696 69.0241C61.3959 69.8198 59.1734 70.2177 56.4022 70.2177H46.8539ZM56.1965 66.7194C58.0897 66.7194 59.585 66.4587 60.6825 65.9374C61.8075 65.4161 62.6169 64.593 63.1107 63.468C63.6321 62.3156 63.9202 60.7791 63.975 58.8585C64.0299 57.2122 64.0573 56.1833 64.0573 55.7718C64.0573 55.3328 64.0299 54.3176 63.975 52.7262C63.9202 50.0098 63.2754 48.0343 62.0407 46.7996C60.806 45.5375 58.7893 44.9064 55.9907 44.9064H49.9407V66.7194H56.1965Z" fill="#151413"></path> <path d="M46.8539 70.2177C46.5796 70.2177 46.3463 70.1354 46.1543 69.9707C45.9897 69.7787 45.9073 69.5455 45.9073 69.2711V42.3959C45.9073 42.0941 45.9897 41.8609 46.1543 41.6962C46.3463 41.5042 46.5796 41.4081 46.8539 41.4081H56.1965C60.3395 41.4081 63.3303 42.341 65.1686 44.2068C67.0069 46.0451 67.9672 48.83 68.0495 52.5615C68.077 53.3572 68.0907 54.4273 68.0907 55.7718C68.0907 57.1162 68.077 58.2 68.0495 59.0231C67.9672 61.6297 67.5282 63.7561 66.7325 65.4024C65.9643 67.0212 64.7433 68.2284 63.0696 69.0241C61.3959 69.8198 59.1734 70.2177 56.4022 70.2177H46.8539ZM56.1965 66.7194C58.0897 66.7194 59.585 66.4587 60.6825 65.9374C61.8075 65.4161 62.6169 64.593 63.1107 63.468C63.6321 62.3156 63.9202 60.7791 63.975 58.8585C64.0299 57.2122 64.0573 56.1833 64.0573 55.7718C64.0573 55.3328 64.0299 54.3176 63.975 52.7262C63.9202 50.0098 63.2754 48.0343 62.0407 46.7996C60.806 45.5375 58.7893 44.9064 55.9907 44.9064H49.9407V66.7194H56.1965Z" fill="url(#paint1_linear)"></path> <path d="M83.543 70.6292C81.2657 70.6292 79.2902 70.2725 77.6165 69.5592C75.9702 68.8458 74.7081 67.9129 73.8301 66.7605C72.9521 65.5807 72.4856 64.3186 72.4308 62.9741C72.4308 62.7546 72.5131 62.5626 72.6777 62.3979C72.8698 62.2059 73.0893 62.1098 73.3362 62.1098H75.4352C75.9565 62.1098 76.3132 62.3842 76.5052 62.933C76.7522 64.0854 77.4518 65.0731 78.6042 65.8962C79.784 66.7194 81.4303 67.1309 83.543 67.1309C85.8203 67.1309 87.5352 66.7331 88.6876 65.9374C89.8399 65.1143 90.4161 63.9756 90.4161 62.5214C90.4161 61.5885 90.128 60.834 89.5518 60.2578C89.0031 59.6816 88.18 59.174 87.0825 58.735C85.985 58.296 84.3387 57.7473 82.1437 57.0888C80.0035 56.4851 78.3024 55.8403 77.0403 55.1544C75.7781 54.4685 74.8316 53.6179 74.2005 52.6027C73.5694 51.5875 73.2539 50.3117 73.2539 48.7752C73.2539 47.2935 73.6517 45.9628 74.4474 44.783C75.2706 43.6032 76.4367 42.684 77.9457 42.0255C79.4548 41.3396 81.252 40.9966 83.3372 40.9966C85.4774 40.9966 87.3157 41.3807 88.8522 42.149C90.3887 42.8898 91.5548 43.8364 92.3505 44.9888C93.1462 46.1411 93.5715 47.2935 93.6263 48.4459C93.6263 48.6654 93.544 48.8575 93.3794 49.0221C93.2422 49.1867 93.0364 49.269 92.762 49.269H90.5808C90.0046 49.269 89.6479 49.0084 89.5107 48.4871C89.3461 47.3347 88.7013 46.3881 87.5763 45.6473C86.4514 44.879 85.0384 44.4949 83.3372 44.4949C81.4715 44.4949 80.0035 44.8516 78.9335 45.5649C77.8634 46.2783 77.3284 47.3347 77.3284 48.734C77.3284 49.6669 77.5753 50.4351 78.0692 51.0388C78.5905 51.6424 79.3725 52.1774 80.4151 52.6439C81.4577 53.0829 82.9805 53.5905 84.9835 54.1667C87.3157 54.7977 89.154 55.4562 90.4984 56.1422C91.8429 56.8007 92.8444 57.6375 93.5029 58.6527C94.1614 59.6405 94.4906 60.9026 94.4906 62.4391C94.4906 64.9908 93.5029 66.9937 91.5274 68.4479C89.5518 69.9021 86.8904 70.6292 83.543 70.6292Z" fill="#151413"></path> <path d="M83.543 70.6292C81.2657 70.6292 79.2902 70.2725 77.6165 69.5592C75.9702 68.8458 74.7081 67.9129 73.8301 66.7605C72.9521 65.5807 72.4856 64.3186 72.4308 62.9741C72.4308 62.7546 72.5131 62.5626 72.6777 62.3979C72.8698 62.2059 73.0893 62.1098 73.3362 62.1098H75.4352C75.9565 62.1098 76.3132 62.3842 76.5052 62.933C76.7522 64.0854 77.4518 65.0731 78.6042 65.8962C79.784 66.7194 81.4303 67.1309 83.543 67.1309C85.8203 67.1309 87.5352 66.7331 88.6876 65.9374C89.8399 65.1143 90.4161 63.9756 90.4161 62.5214C90.4161 61.5885 90.128 60.834 89.5518 60.2578C89.0031 59.6816 88.18 59.174 87.0825 58.735C85.985 58.296 84.3387 57.7473 82.1437 57.0888C80.0035 56.4851 78.3024 55.8403 77.0403 55.1544C75.7781 54.4685 74.8316 53.6179 74.2005 52.6027C73.5694 51.5875 73.2539 50.3117 73.2539 48.7752C73.2539 47.2935 73.6517 45.9628 74.4474 44.783C75.2706 43.6032 76.4367 42.684 77.9457 42.0255C79.4548 41.3396 81.252 40.9966 83.3372 40.9966C85.4774 40.9966 87.3157 41.3807 88.8522 42.149C90.3887 42.8898 91.5548 43.8364 92.3505 44.9888C93.1462 46.1411 93.5715 47.2935 93.6263 48.4459C93.6263 48.6654 93.544 48.8575 93.3794 49.0221C93.2422 49.1867 93.0364 49.269 92.762 49.269H90.5808C90.0046 49.269 89.6479 49.0084 89.5107 48.4871C89.3461 47.3347 88.7013 46.3881 87.5763 45.6473C86.4514 44.879 85.0384 44.4949 83.3372 44.4949C81.4715 44.4949 80.0035 44.8516 78.9335 45.5649C77.8634 46.2783 77.3284 47.3347 77.3284 48.734C77.3284 49.6669 77.5753 50.4351 78.0692 51.0388C78.5905 51.6424 79.3725 52.1774 80.4151 52.6439C81.4577 53.0829 82.9805 53.5905 84.9835 54.1667C87.3157 54.7977 89.154 55.4562 90.4984 56.1422C91.8429 56.8007 92.8444 57.6375 93.5029 58.6527C94.1614 59.6405 94.4906 60.9026 94.4906 62.4391C94.4906 64.9908 93.5029 66.9937 91.5274 68.4479C89.5518 69.9021 86.8904 70.6292 83.543 70.6292Z" fill="url(#paint2_linear)"></path> <path fill-rule="evenodd" clip-rule="evenodd" d="M107.707 55.5C107.707 84.3334 84.3334 107.707 55.5 107.707C46.5775 107.707 38.1777 105.469 30.8316 101.523L83.0217 11.1275C97.8413 20.3387 107.707 36.7672 107.707 55.5ZM82.0585 6.75512C74.17 2.44801 65.1209 0 55.5 0C24.8482 0 0 24.8482 0 55.5C0 86.1518 24.8482 111 55.5 111C86.1518 111 111 86.1518 111 55.5C111 35.5485 100.472 18.056 84.6691 8.27427L84.7467 8.13981L82.1309 6.62961L82.0585 6.75512ZM80.4114 9.60793L28.2133 100.018C13.2631 90.8346 3.29252 74.3317 3.29252 55.5C3.29252 26.6666 26.6666 3.29252 55.5 3.29252C64.5211 3.29252 73.0078 5.58054 80.4114 9.60793Z" fill="#FD0005"></path> <defs> <linearGradient id="paint0_linear" x1="-4.33808" y1="25.5266" x2="121.115" y2="105.949" gradientUnits="userSpaceOnUse"> <stop stop-color="#5BADFB"></stop> <stop offset="1" stop-color="#56A7F6"></stop> </linearGradient> <linearGradient id="paint1_linear" x1="-4.33808" y1="25.5266" x2="121.115" y2="105.949" gradientUnits="userSpaceOnUse"> <stop stop-color="#5BADFB"></stop> <stop offset="1" stop-color="#56A7F6"></stop> </linearGradient> <linearGradient id="paint2_linear" x1="-4.33808" y1="25.5266" x2="121.115" y2="105.949" gradientUnits="userSpaceOnUse"> <stop stop-color="#5BADFB"></stop> <stop offset="1" stop-color="#56A7F6"></stop> </linearGradient> </defs> </svg> 