<?xml version="1.0" encoding="UTF-8"?> <svg xmlns="http://www.w3.org/2000/svg" width="69" height="65" viewBox="0 0 69 65" fill="none"> <path d="M44.8087 0.797363H68.2437L63.7475 8.15486H40.3125L44.8087 0.797363Z" fill="#FD0005"></path> <path d="M54.5141 5.90288V6.43262H52.1204V2.94026H52.7385V5.90288H54.5141ZM55.8101 2.94026V6.43262H55.192V2.94026H55.8101ZM56.4052 2.94026H57.0477L57.9306 5.70177L58.8331 2.94026H59.4561L58.2592 6.43262H57.5775L56.4052 2.94026ZM62.5527 2.94026V3.45528H60.6447V4.38233H62.4154V4.87773H60.6447V5.90778H62.5822V6.43262H60.0365V2.94026H62.5527Z" fill="white"></path> <path fill-rule="evenodd" clip-rule="evenodd" d="M26.8278 35.5334C29.0408 38.9015 30.9265 41.611 31.0181 41.554C31.1099 41.4973 32.9629 38.7478 35.1355 35.444C37.3085 32.14 39.189 29.4308 39.3149 29.4234C39.4405 29.4158 39.5078 33.7938 39.4645 39.1517L39.3857 48.8935L38.4186 50.6874C37.8864 51.6739 36.0569 55.0866 34.3524 58.2711L31.2535 64.0612L29.4959 60.8372C28.529 59.0643 27.3044 56.8165 26.7744 55.8423C26.2444 54.8681 25.0882 52.772 24.2053 51.1844L22.6 48.2976V38.8538C22.6 33.6597 22.646 29.4098 22.7022 29.4098C22.7583 29.4098 24.6149 32.1656 26.8278 35.5334Z" fill="white"></path> <path d="M25.5792 10.4029C26.476 11.6392 27.3104 12.7737 27.433 12.9235C27.5559 13.0734 28.3664 14.2078 29.2343 15.4442C30.1025 16.6805 30.9159 17.6923 31.0423 17.6923C31.2734 17.6923 34.1583 13.8059 36.6547 10.1318L37.9962 8.15751L49.6456 8.15615C56.0526 8.15533 61.295 8.15479 61.295 8.15479L59.8611 10.8798C59.3442 11.854 58.3651 13.6933 57.6855 14.9673C57.0058 16.2412 55.6976 18.6937 54.7784 20.4173C53.859 22.1408 52.8644 23.9802 52.5682 24.5048C52.272 25.0293 50.9566 27.45 49.6453 29.8842C48.3341 32.3184 47.1999 34.311 47.125 34.3126C47.05 34.314 47.0239 30.0845 47.0669 24.9138L47.1454 15.5123H43.3626H39.5797L35.3816 21.8986C33.0727 25.4108 31.1104 28.2925 31.0208 28.3023C30.9311 28.3119 29.5926 26.3883 28.0464 24.0279C26.5003 21.6675 23.6219 17.2865 23.6219 17.2865L22.4637 15.5237L18.7204 15.518L14.9771 15.5123L14.9054 24.8454L14.8337 34.1785L13.4917 31.726C12.7537 30.3772 11.7869 28.5991 11.3433 27.7748C10.8997 26.9505 9.49083 24.3753 8.21253 22.0523C6.93424 19.7292 5.35183 16.8475 4.69565 15.6485C4.03947 14.4495 3.39446 13.2846 3.26203 13.0598C2.21454 11.282 0.799988 8.60659 0.799988 8.40331C0.799988 8.25752 5.58291 8.15479 12.3742 8.15479H23.9486L25.5792 10.4029Z" fill="white"></path> <circle cx="47.8062" cy="4.74879" r="1.77125" fill="white"></circle> </svg> 