<?xml version="1.0" encoding="UTF-8"?> <svg xmlns="http://www.w3.org/2000/svg" width="94" height="94" viewBox="0 0 94 94" fill="none"> <path d="M94 47.0015C94 21.0421 72.9571 0.000976564 47.0006 0.000976564C21.0429 0.000787108 0 21.0417 0 47.0015C0 72.9574 21.0429 94 47.0008 94C72.9571 93.9998 94 72.9572 94 47.0015Z" fill="#32BEA6"></path> <path d="M94 47.0015C94 21.0421 72.9571 0.000976564 47.0006 0.000976564C21.0429 0.000787108 0 21.0417 0 47.0015C0 72.9574 21.0429 94 47.0008 94C72.9571 93.9998 94 72.9572 94 47.0015Z" fill="url(#paint0_linear)"></path> <path d="M94 47.0015C94 21.0421 72.9571 0.000976564 47.0006 0.000976564C21.0429 0.000787108 0 21.0417 0 47.0015C0 72.9574 21.0429 94 47.0008 94C72.9571 93.9998 94 72.9572 94 47.0015Z" fill="url(#paint1_linear)"></path> <path d="M70.2511 44.568L37.1061 24.2159C36.2012 23.6601 35.0105 23.636 34.084 24.1549C33.1407 24.6825 32.5549 25.6817 32.5549 26.7622V67.3057C32.5549 68.3843 33.139 69.3827 34.0793 69.9111C34.5251 70.1612 35.0311 70.2938 35.5429 70.2938C36.0917 70.2938 36.6292 70.1428 37.0973 69.8575L70.2421 49.6661C71.1243 49.1288 71.6736 48.1531 71.6753 47.1198C71.6772 46.0867 71.1315 45.1087 70.2511 44.568Z" fill="white"></path> <defs> <linearGradient id="paint0_linear" x1="-12.6781" y1="-19.9541" x2="135.171" y2="26.0153" gradientUnits="userSpaceOnUse"> <stop stop-color="#43D944"></stop> <stop offset="1" stop-color="#138C13"></stop> </linearGradient> <linearGradient id="paint1_linear" x1="-21.8041" y1="-11.0145" x2="155.038" y2="55.8725" gradientUnits="userSpaceOnUse"> <stop stop-color="#5BADFB"></stop> <stop offset="1" stop-color="#56A7F6"></stop> </linearGradient> </defs> </svg> 