<?xml version="1.0" encoding="UTF-8"?> <svg xmlns="http://www.w3.org/2000/svg" width="282" height="65" viewBox="0 0 282 65" fill="none"> <path d="M98.44 17.32H92.92L90 27.64C89.32 30 89.04 32.44 88.84 34.88C88.56 32.44 88.16 30 87.52 27.64L84.68 17.32H79L86.72 44H91.04L98.44 17.32Z" fill="white"></path> <path d="M115.796 44L109.396 17.32H103.876L97.6356 44H102.916L103.876 39.52H109.196L110.196 44H115.796ZM104.676 35.4C105.436 31.68 106.196 27.96 106.436 24.2C106.556 25.36 106.716 26.56 106.876 27.72C107.276 30.32 107.836 32.84 108.396 35.4H104.676Z" fill="white"></path> <path d="M133.514 44L128.874 31.88C131.474 30.28 132.674 28.12 132.674 25.08C132.674 22.6 131.634 20 129.514 18.6C127.834 17.48 125.674 17.32 123.714 17.32H117.994V44H123.274V31.72L127.954 44H133.514ZM123.274 21.48H124.274C126.594 21.48 127.554 22.96 127.554 25.12C127.554 27.28 126.434 28.84 124.154 28.84C123.874 28.84 123.554 28.84 123.274 28.8V21.48Z" fill="white"></path> <path d="M169.116 44L166.356 17.32H159.236L157.116 33.08L154.516 17.32H147.556L145.236 44H150.876L151.716 24.8L152.036 27.92C152.156 29.28 152.436 30.6 152.716 31.92L155.196 44H159.236L161.596 30.96C161.956 28.92 162.276 26.88 162.396 24.8L163.716 44H169.116Z" fill="white"></path> <path d="M188.296 44L181.896 17.32H176.376L170.136 44H175.416L176.376 39.52H181.696L182.696 44H188.296ZM177.176 35.4C177.936 31.68 178.696 27.96 178.936 24.2C179.056 25.36 179.216 26.56 179.376 27.72C179.776 30.32 180.336 32.84 180.896 35.4H177.176Z" fill="white"></path> <path d="M201.387 22.2V17.32H187.867V22.2H191.987V44H197.267V22.2H201.387Z" fill="white"></path> <path d="M216.149 37.92C215.069 38.92 213.869 39.2 212.989 39.2C211.549 39.2 210.589 38.6 209.989 37.92C208.109 35.84 208.109 31.6 208.109 30.92C208.109 27.48 208.869 24.72 210.309 23.28C210.909 22.68 211.829 22.08 213.229 22.08C214.069 22.08 215.149 22.32 216.149 23.24V17.8C215.109 17.32 214.029 17.04 212.829 17.04C211.029 17.04 208.629 17.52 206.429 19.72C202.909 23.28 202.589 28.4 202.589 31.08C202.589 36.72 204.309 40 206.189 41.88C207.989 43.68 209.949 44.28 212.509 44.28C213.949 44.28 214.989 44.08 216.149 43.44V37.92Z" fill="white"></path> <path d="M235.437 44V17.32H230.157V27.2H224.837V17.32H219.557V44H224.837V32.2H230.157V44H235.437Z" fill="white"></path> <path d="M260.372 22.2V17.32H246.852V22.2H250.972V44H256.252V22.2H260.372Z" fill="white"></path> <path d="M281.253 17.32H275.732L272.812 27.64C272.133 30 271.852 32.44 271.652 34.88C271.372 32.44 270.973 30 270.333 27.64L267.492 17.32H261.812L269.533 44H273.853L281.253 17.32Z" fill="white"></path> <path d="M44.8087 0.797607H68.2437L63.7475 8.15511H40.3125L44.8087 0.797607Z" fill="#FD0005"></path> <path d="M54.5141 5.90288V6.43262H52.1204V2.94026H52.7385V5.90288H54.5141ZM55.8101 2.94026V6.43262H55.192V2.94026H55.8101ZM56.4052 2.94026H57.0477L57.9306 5.70177L58.8331 2.94026H59.4561L58.2592 6.43262H57.5775L56.4052 2.94026ZM62.5527 2.94026V3.45528H60.6447V4.38233H62.4154V4.87773H60.6447V5.90778H62.5822V6.43262H60.0365V2.94026H62.5527Z" fill="white"></path> <path fill-rule="evenodd" clip-rule="evenodd" d="M26.8278 35.5336C29.0408 38.9017 30.9265 41.6112 31.0181 41.5543C31.1099 41.4976 32.9629 38.7481 35.1355 35.4443C37.3085 32.1402 39.189 29.431 39.3149 29.4237C39.4405 29.416 39.5078 33.794 39.4645 39.1519L39.3857 48.8938L38.4186 50.6876C37.8864 51.6741 36.0569 55.0869 34.3524 58.2713L31.2535 64.0614L29.4959 60.8375C28.529 59.0646 27.3044 56.8167 26.7744 55.8425C26.2444 54.8683 25.0882 52.7723 24.2053 51.1847L22.6 48.2978V38.8541C22.6 33.6599 22.646 29.41 22.7022 29.41C22.7583 29.41 24.6149 32.1658 26.8278 35.5336Z" fill="white"></path> <path d="M25.5792 10.4032C26.476 11.6395 27.3104 12.7739 27.433 12.9238C27.5559 13.0737 28.3664 14.2081 29.2343 15.4444C30.1025 16.6807 30.9159 17.6925 31.0423 17.6925C31.2734 17.6925 34.1583 13.8061 36.6547 10.132L37.9962 8.15775L49.6456 8.15639C56.0526 8.15557 61.295 8.15503 61.295 8.15503L59.8611 10.88C59.3442 11.8542 58.3651 13.6936 57.6855 14.9675C57.0058 16.2415 55.6976 18.694 54.7784 20.4175C53.859 22.1411 52.8644 23.9805 52.5682 24.505C52.272 25.0296 50.9566 27.4502 49.6453 29.8844C48.3341 32.3187 47.1999 34.3112 47.125 34.3129C47.05 34.3142 47.0239 30.0847 47.0669 24.9141L47.1454 15.5125H43.3626H39.5797L35.3816 21.8988C33.0727 25.4111 31.1104 28.2928 31.0208 28.3026C30.9311 28.3121 29.5926 26.3885 28.0464 24.0282C26.5003 21.6678 23.6219 17.2868 23.6219 17.2868L22.4637 15.524L18.7204 15.5182L14.9771 15.5125L14.9054 24.8457L14.8337 34.1788L13.4917 31.7263C12.7537 30.3774 11.7869 28.5993 11.3433 27.775C10.8997 26.9507 9.49083 24.3756 8.21253 22.0525C6.93424 19.7295 5.35183 16.8478 4.69565 15.6488C4.03947 14.4498 3.39446 13.2848 3.26203 13.06C2.21454 11.2822 0.799988 8.60683 0.799988 8.40355C0.799988 8.25776 5.58291 8.15503 12.3742 8.15503H23.9486L25.5792 10.4032Z" fill="white"></path> <circle cx="47.8062" cy="4.74891" r="1.77125" fill="white"></circle> </svg> 