<?xml version="1.0" encoding="UTF-8"?> <svg xmlns="http://www.w3.org/2000/svg" width="101" height="101" viewBox="0 0 101 101" fill="none"> <g clip-path="url(#clip0)"> <path fill-rule="evenodd" clip-rule="evenodd" d="M77.6719 23.2839L98.1723 43.7844C101.943 47.5545 101.943 53.4455 98.1723 57.2157L77.6719 77.7161L57.1715 98.2166C53.4013 101.869 47.3925 101.869 43.7402 98.2166L23.2397 77.7161L2.73928 57.2157C-0.913094 53.4455 -0.913094 47.4367 2.73928 43.7844L23.2397 23.2839L43.7402 2.78347C47.5104 -0.868905 53.5191 -0.868905 57.1715 2.78347L77.6719 23.2839ZM43.6223 64.8739C44.2114 64.8739 44.8005 64.4026 44.9183 63.8135L49.3955 37.3043C49.3955 36.7152 49.042 36.244 48.4529 36.244H44.8005C44.2114 36.244 43.6223 36.7152 43.5045 37.3043L41.7372 47.5545H29.9554L31.7227 37.3043C31.7227 36.7152 31.3692 36.244 30.7801 36.244H27.1277C26.5386 36.244 25.9495 36.7152 25.8317 37.3043L21.3546 63.8135C21.3546 64.4026 21.7081 64.8739 22.2972 64.8739H25.9495C26.5386 64.8739 27.1277 64.4026 27.2456 63.8135L29.0128 53.3277H40.7947L39.0274 63.8135C39.0274 64.4026 39.3809 64.8739 39.97 64.8739H43.6223ZM62.2377 64.8739C70.3672 64.8739 78.0254 58.3939 79.3214 50.5C80.6174 42.6062 75.1977 36.1261 67.0682 36.244H56.3467C55.7577 36.244 55.1686 36.7152 55.0507 37.3043L50.5736 63.8135C50.5736 64.4026 50.9271 64.8739 51.5162 64.8739H62.2377ZM60.117 42.0171H66.1257C70.9563 42.0171 74.2552 45.7873 73.5483 50.5C72.7235 55.2128 68.1286 58.983 63.2981 58.983H57.2893L60.117 42.0171Z" fill="#3E3E3E"></path> <path fill-rule="evenodd" clip-rule="evenodd" d="M77.6719 23.2839L98.1723 43.7844C101.943 47.5545 101.943 53.4455 98.1723 57.2157L77.6719 77.7161L57.1715 98.2166C53.4013 101.869 47.3925 101.869 43.7402 98.2166L23.2397 77.7161L2.73928 57.2157C-0.913094 53.4455 -0.913094 47.4367 2.73928 43.7844L23.2397 23.2839L43.7402 2.78347C47.5104 -0.868905 53.5191 -0.868905 57.1715 2.78347L77.6719 23.2839ZM43.6223 64.8739C44.2114 64.8739 44.8005 64.4026 44.9183 63.8135L49.3955 37.3043C49.3955 36.7152 49.042 36.244 48.4529 36.244H44.8005C44.2114 36.244 43.6223 36.7152 43.5045 37.3043L41.7372 47.5545H29.9554L31.7227 37.3043C31.7227 36.7152 31.3692 36.244 30.7801 36.244H27.1277C26.5386 36.244 25.9495 36.7152 25.8317 37.3043L21.3546 63.8135C21.3546 64.4026 21.7081 64.8739 22.2972 64.8739H25.9495C26.5386 64.8739 27.1277 64.4026 27.2456 63.8135L29.0128 53.3277H40.7947L39.0274 63.8135C39.0274 64.4026 39.3809 64.8739 39.97 64.8739H43.6223ZM62.2377 64.8739C70.3672 64.8739 78.0254 58.3939 79.3214 50.5C80.6174 42.6062 75.1977 36.1261 67.0682 36.244H56.3467C55.7577 36.244 55.1686 36.7152 55.0507 37.3043L50.5736 63.8135C50.5736 64.4026 50.9271 64.8739 51.5162 64.8739H62.2377ZM60.117 42.0171H66.1257C70.9563 42.0171 74.2552 45.7873 73.5483 50.5C72.7235 55.2128 68.1286 58.983 63.2981 58.983H57.2893L60.117 42.0171Z" fill="url(#paint0_linear)"></path> <path fill-rule="evenodd" clip-rule="evenodd" d="M77.6719 23.2839L98.1723 43.7844C101.943 47.5545 101.943 53.4455 98.1723 57.2157L77.6719 77.7161L57.1715 98.2166C53.4013 101.869 47.3925 101.869 43.7402 98.2166L23.2397 77.7161L2.73928 57.2157C-0.913094 53.4455 -0.913094 47.4367 2.73928 43.7844L23.2397 23.2839L43.7402 2.78347C47.5104 -0.868905 53.5191 -0.868905 57.1715 2.78347L77.6719 23.2839ZM43.6223 64.8739C44.2114 64.8739 44.8005 64.4026 44.9183 63.8135L49.3955 37.3043C49.3955 36.7152 49.042 36.244 48.4529 36.244H44.8005C44.2114 36.244 43.6223 36.7152 43.5045 37.3043L41.7372 47.5545H29.9554L31.7227 37.3043C31.7227 36.7152 31.3692 36.244 30.7801 36.244H27.1277C26.5386 36.244 25.9495 36.7152 25.8317 37.3043L21.3546 63.8135C21.3546 64.4026 21.7081 64.8739 22.2972 64.8739H25.9495C26.5386 64.8739 27.1277 64.4026 27.2456 63.8135L29.0128 53.3277H40.7947L39.0274 63.8135C39.0274 64.4026 39.3809 64.8739 39.97 64.8739H43.6223ZM62.2377 64.8739C70.3672 64.8739 78.0254 58.3939 79.3214 50.5C80.6174 42.6062 75.1977 36.1261 67.0682 36.244H56.3467C55.7577 36.244 55.1686 36.7152 55.0507 37.3043L50.5736 63.8135C50.5736 64.4026 50.9271 64.8739 51.5162 64.8739H62.2377ZM60.117 42.0171H66.1257C70.9563 42.0171 74.2552 45.7873 73.5483 50.5C72.7235 55.2128 68.1286 58.983 63.2981 58.983H57.2893L60.117 42.0171Z" fill="url(#paint1_linear)"></path> </g> <defs> <linearGradient id="paint0_linear" x1="-13.6222" y1="-21.3784" x2="145.213" y2="28.0495" gradientUnits="userSpaceOnUse"> <stop stop-color="#43D944"></stop> <stop offset="1" stop-color="#138C13"></stop> </linearGradient> <linearGradient id="paint1_linear" x1="-23.4278" y1="-11.7814" x2="166.543" y2="60.1332" gradientUnits="userSpaceOnUse"> <stop stop-color="#5BADFB"></stop> <stop offset="1" stop-color="#56A7F6"></stop> </linearGradient> <clipPath id="clip0"> <rect width="101" height="101" fill="white"></rect> </clipPath> </defs> </svg> 