<?xml version="1.0" encoding="UTF-8"?> <svg xmlns="http://www.w3.org/2000/svg" width="121" height="117" viewBox="0 0 121 117" fill="none"> <path d="M77.0968 0.727783H120.168L111.904 14.2501H68.8332L77.0968 0.727783Z" fill="#FD0005"></path> <path d="M94.9512 9.75605V10.7329H90.5372V4.29287H91.6769V9.75605H94.9512ZM97.3411 4.29287V10.7329H96.2014V4.29287H97.3411ZM98.4384 4.29287H99.6233L101.251 9.38521L102.916 4.29287H104.064L101.857 10.7329H100.6L98.4384 4.29287ZM109.775 4.29287V5.24259H106.256V6.9521H109.522V7.86565H106.256V9.7651H109.829V10.7329H105.135V4.29287H109.775Z" fill="white"></path> <path fill-rule="evenodd" clip-rule="evenodd" d="M48.0365 64.5691C52.1037 70.7593 55.5694 75.739 55.7377 75.6343C55.9065 75.5301 59.3121 70.4768 63.3052 64.4048C67.2988 58.3323 70.755 53.353 70.9863 53.3395C71.2172 53.3255 71.3409 61.3718 71.2613 71.219L71.1166 89.1236L69.3391 92.4205C68.361 94.2335 64.9985 100.506 61.8658 106.359L56.1704 117L52.9401 111.075C51.1631 107.816 48.9124 103.685 47.9383 101.895C46.9642 100.104 44.8392 96.2519 43.2165 93.334L40.2661 88.0283V70.6716C40.2661 61.1254 40.3508 53.3145 40.454 53.3145C40.5571 53.3145 43.9693 58.3793 48.0365 64.5691Z" fill="white"></path> <path fill-rule="evenodd" clip-rule="evenodd" d="M48.0365 64.5691C52.1037 70.7593 55.5694 75.739 55.7377 75.6343C55.9065 75.5301 59.3121 70.4768 63.3052 64.4048C67.2988 58.3323 70.755 53.353 70.9863 53.3395C71.2172 53.3255 71.3409 61.3718 71.2613 71.219L71.1166 89.1236L69.3391 92.4205C68.361 94.2335 64.9985 100.506 61.8658 106.359L56.1704 117L52.9401 111.075C51.1631 107.816 48.9124 103.685 47.9383 101.895C46.9642 100.104 44.8392 96.2519 43.2165 93.334L40.2661 88.0283V70.6716C40.2661 61.1254 40.3508 53.3145 40.454 53.3145C40.5571 53.3145 43.9693 58.3793 48.0365 64.5691Z" fill="url(#paint0_linear)"></path> <path fill-rule="evenodd" clip-rule="evenodd" d="M48.0365 64.5691C52.1037 70.7593 55.5694 75.739 55.7377 75.6343C55.9065 75.5301 59.3121 70.4768 63.3052 64.4048C67.2988 58.3323 70.755 53.353 70.9863 53.3395C71.2172 53.3255 71.3409 61.3718 71.2613 71.219L71.1166 89.1236L69.3391 92.4205C68.361 94.2335 64.9985 100.506 61.8658 106.359L56.1704 117L52.9401 111.075C51.1631 107.816 48.9124 103.685 47.9383 101.895C46.9642 100.104 44.8392 96.2519 43.2165 93.334L40.2661 88.0283V70.6716C40.2661 61.1254 40.3508 53.3145 40.454 53.3145C40.5571 53.3145 43.9693 58.3793 48.0365 64.5691Z" fill="url(#paint1_linear)"></path> <path d="M45.7417 18.3818C47.3899 20.6541 48.9234 22.739 49.1488 23.0145C49.3747 23.2899 50.8641 25.3749 52.4593 27.6471C54.0549 29.9194 55.5499 31.7789 55.7823 31.7789C56.207 31.7789 61.5092 24.6361 66.0973 17.8835L68.5628 14.255L89.9732 14.2525C101.749 14.251 111.384 14.25 111.384 14.25L108.748 19.2583C107.798 21.0487 105.999 24.4293 104.75 26.7707C103.501 29.112 101.096 33.6195 99.4068 36.7872C97.717 39.9549 95.889 43.3355 95.3446 44.2996C94.8002 45.2637 92.3827 49.7125 89.9727 54.1864C87.5627 58.6603 85.4783 62.3223 85.3405 62.3254C85.2028 62.3279 85.1547 54.5545 85.2339 45.0513L85.3781 27.7723H78.4256H71.4731L63.7574 39.5097C59.5139 45.9648 55.9075 51.2611 55.7427 51.2791C55.5779 51.2967 53.1179 47.7613 50.2762 43.4232C47.4345 39.085 42.1442 31.0332 42.1442 31.0332L40.0157 27.7934L33.1359 27.7828L26.256 27.7723L26.1243 44.9256L25.9926 62.0789L23.526 57.5715C22.1698 55.0924 20.3928 51.8245 19.5775 50.3095C18.7621 48.7945 16.1729 44.0617 13.8235 39.7922C11.4741 35.5226 8.56582 30.2264 7.35983 28.0227C6.15384 25.8191 4.96838 23.6781 4.72498 23.2649C2.7998 19.9975 0.200012 15.0804 0.200012 14.7068C0.200012 14.4388 8.99052 14.25 21.4721 14.25H42.7447L45.7417 18.3818Z" fill="white"></path> <path d="M45.7417 18.3818C47.3899 20.6541 48.9234 22.739 49.1488 23.0145C49.3747 23.2899 50.8641 25.3749 52.4593 27.6471C54.0549 29.9194 55.5499 31.7789 55.7823 31.7789C56.207 31.7789 61.5092 24.6361 66.0973 17.8835L68.5628 14.255L89.9732 14.2525C101.749 14.251 111.384 14.25 111.384 14.25L108.748 19.2583C107.798 21.0487 105.999 24.4293 104.75 26.7707C103.501 29.112 101.096 33.6195 99.4068 36.7872C97.717 39.9549 95.889 43.3355 95.3446 44.2996C94.8002 45.2637 92.3827 49.7125 89.9727 54.1864C87.5627 58.6603 85.4783 62.3223 85.3405 62.3254C85.2028 62.3279 85.1547 54.5545 85.2339 45.0513L85.3781 27.7723H78.4256H71.4731L63.7574 39.5097C59.5139 45.9648 55.9075 51.2611 55.7427 51.2791C55.5779 51.2967 53.1179 47.7613 50.2762 43.4232C47.4345 39.085 42.1442 31.0332 42.1442 31.0332L40.0157 27.7934L33.1359 27.7828L26.256 27.7723L26.1243 44.9256L25.9926 62.0789L23.526 57.5715C22.1698 55.0924 20.3928 51.8245 19.5775 50.3095C18.7621 48.7945 16.1729 44.0617 13.8235 39.7922C11.4741 35.5226 8.56582 30.2264 7.35983 28.0227C6.15384 25.8191 4.96838 23.6781 4.72498 23.2649C2.7998 19.9975 0.200012 15.0804 0.200012 14.7068C0.200012 14.4388 8.99052 14.25 21.4721 14.25H42.7447L45.7417 18.3818Z" fill="url(#paint2_linear)"></path> <path d="M45.7417 18.3818C47.3899 20.6541 48.9234 22.739 49.1488 23.0145C49.3747 23.2899 50.8641 25.3749 52.4593 27.6471C54.0549 29.9194 55.5499 31.7789 55.7823 31.7789C56.207 31.7789 61.5092 24.6361 66.0973 17.8835L68.5628 14.255L89.9732 14.2525C101.749 14.251 111.384 14.25 111.384 14.25L108.748 19.2583C107.798 21.0487 105.999 24.4293 104.75 26.7707C103.501 29.112 101.096 33.6195 99.4068 36.7872C97.717 39.9549 95.889 43.3355 95.3446 44.2996C94.8002 45.2637 92.3827 49.7125 89.9727 54.1864C87.5627 58.6603 85.4783 62.3223 85.3405 62.3254C85.2028 62.3279 85.1547 54.5545 85.2339 45.0513L85.3781 27.7723H78.4256H71.4731L63.7574 39.5097C59.5139 45.9648 55.9075 51.2611 55.7427 51.2791C55.5779 51.2967 53.1179 47.7613 50.2762 43.4232C47.4345 39.085 42.1442 31.0332 42.1442 31.0332L40.0157 27.7934L33.1359 27.7828L26.256 27.7723L26.1243 44.9256L25.9926 62.0789L23.526 57.5715C22.1698 55.0924 20.3928 51.8245 19.5775 50.3095C18.7621 48.7945 16.1729 44.0617 13.8235 39.7922C11.4741 35.5226 8.56582 30.2264 7.35983 28.0227C6.15384 25.8191 4.96838 23.6781 4.72498 23.2649C2.7998 19.9975 0.200012 15.0804 0.200012 14.7068C0.200012 14.4388 8.99052 14.25 21.4721 14.25H42.7447L45.7417 18.3818Z" fill="url(#paint3_linear)"></path> <circle cx="82.6059" cy="7.9895" r="3.25537" fill="white"></circle> <defs> <linearGradient id="paint0_linear" x1="-66.8854" y1="-87.3758" x2="248.208" y2="10.5923" gradientUnits="userSpaceOnUse"> <stop stop-color="#43D944"></stop> <stop offset="1" stop-color="#138C13"></stop> </linearGradient> <linearGradient id="paint1_linear" x1="-25.59" y1="2.20898" x2="179.2" y2="86.0234" gradientUnits="userSpaceOnUse"> <stop stop-color="#5BADFB"></stop> <stop offset="1" stop-color="#56A7F6"></stop> </linearGradient> <linearGradient id="paint2_linear" x1="-66.8854" y1="-87.3758" x2="248.208" y2="10.5923" gradientUnits="userSpaceOnUse"> <stop stop-color="#43D944"></stop> <stop offset="1" stop-color="#138C13"></stop> </linearGradient> <linearGradient id="paint3_linear" x1="-25.59" y1="2.20898" x2="179.2" y2="86.0234" gradientUnits="userSpaceOnUse"> <stop stop-color="#5BADFB"></stop> <stop offset="1" stop-color="#56A7F6"></stop> </linearGradient> </defs> </svg> 